<svg width="18" height="17" viewBox="0 0 18 17" fill="none" xmlns="http://www.w3.org/2000/svg">
<path d="M8.99989 8.57614C10.2552 8.57614 11.2727 7.55856 11.2727 6.3033C11.2727 5.04804 10.2552 4.03046 8.99989 4.03046C7.74464 4.03046 6.72705 5.04804 6.72705 6.3033C6.72705 7.55856 7.74464 8.57614 8.99989 8.57614Z" stroke="#8C8C8C"/>
<path d="M8.99997 16.1523C13.1842 16.1523 16.5761 12.7603 16.5761 8.57614C16.5761 4.39196 13.1842 1 8.99997 1C4.81578 1 1.42383 4.39196 1.42383 8.57614C1.42383 12.7603 4.81578 16.1523 8.99997 16.1523Z" stroke="#8C8C8C"/>
<path d="M13.5227 14.6371C13.4022 12.4464 12.7314 10.849 9.00033 10.849C5.26932 10.849 4.5986 12.4464 4.47803 14.6371" stroke="#8C8C8C" stroke-linecap="round"/>
</svg>
