<svg viewBox="0 0 23 61" fill="none">
<path d="M1.47593 0.846734C1.39128 0.583885 1.10958 0.439423 0.846734 0.52407C0.583885 0.608716 0.439423 0.890417 0.52407 1.15327L1.47593 0.846734ZM19.7718 60.4449C20.0176 60.5709 20.3189 60.4739 20.4449 60.2282L22.4983 56.224C22.6243 55.9783 22.5273 55.6769 22.2816 55.5509C22.0359 55.4249 21.7345 55.5219 21.6085 55.7677L19.7832 59.3269L16.224 57.5017C15.9783 57.3757 15.6769 57.4727 15.5509 57.7184C15.4249 57.9641 15.5219 58.2655 15.7677 58.3915L19.7718 60.4449ZM1 1L0.52407 1.15327L19.5241 60.1533L20 60L20.4759 59.8467L1.47593 0.846734L1 1Z" fill="#868686"/>
</svg>
