<svg width="16" height="15" viewBox="0 0 16 15" fill="none" xmlns="http://www.w3.org/2000/svg">
<path d="M14.8007 9.37277C14.5816 9.28266 14.327 9.23022 14.06 9.23022C13.7597 9.23022 13.4755 9.29641 13.2215 9.41452L13.2334 9.40943L10.2259 10.7306C10.2275 10.7066 10.2395 10.6863 10.2395 10.6624C10.2317 9.96436 9.65181 9.40179 8.93715 9.40179C8.90123 9.40179 8.86584 9.40332 8.83096 9.40587L8.83565 9.40536H6.86656L4.38893 8.69514C4.35666 8.68496 4.3197 8.67936 4.28118 8.67936H4.2791H3.15012V8.29396C3.15012 8.08319 2.97522 7.91213 2.75973 7.91213H0.738592C0.5231 7.91213 0.348209 8.08319 0.348209 8.29396V14.5092C0.348209 14.72 0.5231 14.8911 0.738592 14.8911H2.75973C2.97522 14.8911 3.15012 14.72 3.15012 14.5092V13.9976C4.0964 14.1421 4.94327 14.3753 5.7459 14.6935L5.66834 14.666C6.26693 14.8778 6.95817 15 7.67855 15C7.6822 15 7.68584 15 7.68948 15H7.68896C7.69157 15 7.69469 15 7.69781 15C8.53271 15 9.32857 14.8376 10.0547 14.5428L10.0141 14.5576C10.6611 14.276 11.2102 13.9792 11.7302 13.6417L11.6875 13.6677C11.8635 13.5612 12.0383 13.4548 12.2153 13.3525C13.0653 12.8602 13.7482 12.428 14.3645 11.9922C14.6659 11.7824 14.9282 11.5752 15.1781 11.3542L15.1708 11.3609C15.3649 11.2071 15.52 11.0136 15.6241 10.7927L15.6283 10.783C15.6444 10.7428 15.6533 10.6965 15.6533 10.6476C15.6533 10.6186 15.6502 10.5906 15.6439 10.5636L15.6444 10.5661C15.5684 10.0484 15.2515 9.61613 14.8101 9.37634L14.8017 9.37226L14.8007 9.37277ZM2.36935 14.1279H1.12897V8.6758H2.36935V14.1279ZM14.6211 10.8187C14.4067 11.007 14.1735 11.1898 13.9299 11.3593L13.9054 11.3756C13.3105 11.7962 12.6468 12.2157 11.8161 12.6973C11.635 12.8017 11.4564 12.9101 11.2763 13.0185C10.8318 13.3103 10.3201 13.5887 9.78558 13.826L9.71791 13.853C9.11829 14.0943 8.42184 14.2338 7.69209 14.2338C7.06591 14.2338 6.4642 14.1304 5.90361 13.941L5.94213 13.9522C5.13274 13.6223 4.19166 13.3693 3.21049 13.2359L3.14959 13.2293V9.44354H4.22289L6.70051 10.1538C6.73279 10.1639 6.76974 10.1695 6.80826 10.1695H6.81034H8.83513C9.29474 10.1695 9.45818 10.4348 9.45818 10.6629C9.45818 10.8909 9.29474 11.1562 8.83513 11.1562H5.29097C5.07548 11.1562 4.90059 11.3273 4.90059 11.538C4.90059 11.7488 5.07548 11.9199 5.29097 11.9199H9.34106H9.34315C9.4004 11.9199 9.45453 11.9076 9.50294 11.8852L9.50086 11.8863L13.5582 10.1044C13.7081 10.0372 13.8836 9.99796 14.0683 9.99796C14.2063 9.99796 14.339 10.0199 14.4629 10.0601L14.454 10.0575C14.6534 10.1746 14.7965 10.365 14.8455 10.5901L14.8465 10.5957C14.7757 10.6766 14.7018 10.7494 14.6232 10.8171L14.6206 10.8192L14.6211 10.8187ZM15.2624 0.109459H13.2412C13.0258 0.109459 12.8509 0.280521 12.8509 0.491294V1.00601C11.9067 0.863965 11.0587 0.629264 10.2582 0.306486L10.3326 0.33296C9.72936 0.121678 9.03344 0 8.30785 0C7.47191 0 6.67449 0.162407 5.94682 0.456165L5.98794 0.441401C5.34146 0.722432 4.79232 1.01975 4.27286 1.3578L4.31502 1.33184C4.13961 1.43774 3.96419 1.54414 3.78722 1.64647C2.93046 2.14286 2.24755 2.57459 1.63907 3.00631C1.33926 3.21403 1.07796 3.41971 0.829681 3.63965L0.836968 3.63354C0.640736 3.78831 0.484062 3.98279 0.377878 4.20527L0.373714 4.21495C0.357058 4.25619 0.347168 4.30404 0.347168 4.35394C0.347168 4.38245 0.350291 4.40994 0.356017 4.43641L0.355496 4.43387C0.432011 4.95113 0.749002 5.38285 1.19039 5.62316L1.19872 5.62723C1.39495 5.72192 1.62554 5.77742 1.86966 5.77742C1.87643 5.77742 1.88319 5.77742 1.88996 5.77742H1.88892C2.20747 5.77334 2.50885 5.70512 2.78159 5.58548L2.76754 5.59108L5.77505 4.26891C5.77349 4.29284 5.76152 4.31372 5.76152 4.33764C5.7688 5.03564 6.34917 5.59872 7.06383 5.59872C7.09975 5.59872 7.13462 5.59719 7.17001 5.59464L7.16533 5.59515H9.13442L11.612 6.30537C11.6443 6.31504 11.6818 6.32064 11.7203 6.32064H11.7219H12.8503V6.70604C12.8503 6.91681 13.0252 7.08787 13.2407 7.08787H15.2619C15.4774 7.08787 15.6523 6.91681 15.6523 6.70604V0.491294C15.6523 0.280521 15.4779 0.109459 15.2624 0.109459ZM11.7786 5.55697L9.30098 4.84727C9.26871 4.83759 9.23124 4.83199 9.19272 4.83199H9.19116H7.16637C6.70676 4.83199 6.54384 4.56624 6.54384 4.33815C6.54384 4.11007 6.70676 3.84431 7.16637 3.84431H10.7105C10.926 3.84431 11.1009 3.67325 11.1009 3.46248C11.1009 3.25171 10.926 3.08064 10.7105 3.08064H6.65992C6.60214 3.08064 6.54696 3.09286 6.49752 3.11475L6.50012 3.11374L2.44378 4.89716C2.2944 4.96436 2.11898 5.00407 1.93472 5.00407C1.79627 5.00407 1.66302 4.98218 1.53914 4.94094L1.54798 4.94349C1.34915 4.8269 1.20601 4.63598 1.15708 4.41147L1.15604 4.40587C1.22683 4.32492 1.30074 4.2516 1.38038 4.1844L1.38298 4.18236C1.59795 3.99247 1.83114 3.80969 2.07526 3.64118L2.09868 3.6259C2.6879 3.20792 3.35155 2.7879 4.18749 2.30425C4.36863 2.19886 4.54821 2.08991 4.72778 1.98147C5.1723 1.68975 5.68344 1.41177 6.21852 1.17554L6.28567 1.14907C6.88582 0.907749 7.58226 0.767234 8.31254 0.767234C8.93819 0.767234 9.53938 0.870074 10.0994 1.05997L10.0609 1.04877C10.8698 1.37817 11.8109 1.63171 12.791 1.76611L12.8524 1.77324V5.55799L11.7786 5.55697ZM14.872 6.3242H13.6316L13.6275 3.64286L13.6316 0.873129H14.872V6.3242Z" fill="#8C8C8C"/>
</svg>
