<svg viewBox="0 0 17 17" fill="none">
<path d="M15.3727 4.35052L8.26109 11.4746C7.55292 12.184 5.45073 12.5126 4.98109 12.0422C4.51146 11.5717 4.832 9.46582 5.54018 8.7564L12.6592 1.62481C12.8348 1.43294 13.0473 1.2787 13.2841 1.17139C13.5208 1.06408 13.7768 1.00591 14.0365 1.00043C14.2963 0.994952 14.5545 1.04225 14.7955 1.13949C15.0365 1.23672 15.2554 1.3819 15.4388 1.5662C15.6223 1.7505 15.7666 1.97012 15.863 2.21182C15.9594 2.45353 16.0059 2.71228 15.9998 2.97249C15.9936 3.2327 15.9348 3.48898 15.827 3.72582C15.7192 3.96265 15.5647 4.17518 15.3727 4.35052Z" stroke="#626262" stroke-linecap="round" stroke-linejoin="round"/>
<path d="M7.70905 2.55823H3.9818C3.19097 2.55823 2.43259 2.87293 1.87339 3.43311C1.3142 3.9933 1 4.75307 1 5.54529V13.0129C1 13.8052 1.3142 14.5649 1.87339 15.1251C2.43259 15.6853 3.19097 16 3.9818 16H12.1817C13.8292 16 14.4181 14.6558 14.4181 13.0129V9.27911" stroke="#626262" stroke-linecap="round" stroke-linejoin="round"/>
</svg>
