<svg width="12" height="12" viewBox="0 0 12 12" fill="none" xmlns="http://www.w3.org/2000/svg">
<path d="M6 1.16129C6.32067 1.16129 6.58065 0.901324 6.58065 0.580645C6.58065 0.259966 6.32067 0 6 0V1.16129ZM12 6C12 5.67933 11.74 5.41935 11.4194 5.41935C11.0987 5.41935 10.8387 5.67933 10.8387 6H12ZM11.4194 1.16129C11.74 1.16129 12 0.901324 12 0.580645C12 0.259966 11.74 0 11.4194 0V1.16129ZM8.25445 0C7.93378 0 7.67381 0.259966 7.67381 0.580645C7.67381 0.901324 7.93378 1.16129 8.25445 1.16129V0ZM12 0.580645C12 0.259966 11.74 0 11.4194 0C11.0987 0 10.8387 0.259966 10.8387 0.580645H12ZM10.8387 3.78658C10.8387 4.10725 11.0987 4.36723 11.4194 4.36723C11.74 4.36723 12 4.10725 12 3.78658H10.8387ZM11.8299 0.991223C12.0567 0.76447 12.0567 0.396821 11.8299 0.170067C11.6031 -0.0566866 11.2356 -0.0566866 11.0088 0.170067L11.8299 0.991223ZM5.58945 5.58945C5.36268 5.81621 5.36268 6.18379 5.58945 6.41055C5.81621 6.63732 6.18379 6.63732 6.41055 6.41055L5.58945 5.58945ZM6 0H3.67742V1.16129H6V0ZM3.67742 0C1.64644 0 0 1.64644 0 3.67742H1.16129C1.16129 2.2878 2.2878 1.16129 3.67742 1.16129V0ZM0 3.67742V8.32258H1.16129V3.67742H0ZM0 8.32258C0 10.3536 1.64644 12 3.67742 12V10.8387C2.2878 10.8387 1.16129 9.71218 1.16129 8.32258H0ZM3.67742 12H8.32258V10.8387H3.67742V12ZM8.32258 12C10.3536 12 12 10.3536 12 8.32258H10.8387C10.8387 9.71218 9.71218 10.8387 8.32258 10.8387V12ZM12 8.32258V6H10.8387V8.32258H12ZM11.4194 0H8.25445V1.16129H11.4194V0ZM10.8387 0.580645V3.78658H12V0.580645H10.8387ZM11.0088 0.170067L5.58945 5.58945L6.41055 6.41055L11.8299 0.991223L11.0088 0.170067Z" fill="#8C8C8C"/>
</svg>
