<svg viewBox="0 0 16 17" fill="none">
<path fill-rule="evenodd" clip-rule="evenodd" d="M0.98354 0.995835C-1.00077e-07 1.99168 0 3.59445 0 6.8V10.2C0 13.4055 -1.00077e-07 15.0084 0.98354 16.0041C1.96709 17 3.55007 17 6.71605 17H8.39506C11.561 17 13.1441 17 14.1275 16.0041C15.1111 15.0084 15.1111 13.4055 15.1111 10.2V6.8C15.1111 3.59445 15.1111 1.99168 14.1275 0.995835C13.1441 1.01328e-07 11.561 0 8.39506 0H6.71605C3.55007 0 1.96709 1.01328e-07 0.98354 0.995835ZM3.5679 5.1C3.5679 4.74792 3.8498 4.4625 4.19753 4.4625H10.9136C11.2613 4.4625 11.5432 4.74792 11.5432 5.1C11.5432 5.45208 11.2613 5.7375 10.9136 5.7375H4.19753C3.8498 5.7375 3.5679 5.45208 3.5679 5.1ZM3.5679 8.5C3.5679 8.14793 3.8498 7.8625 4.19753 7.8625H10.9136C11.2613 7.8625 11.5432 8.14793 11.5432 8.5C11.5432 8.85207 11.2613 9.1375 10.9136 9.1375H4.19753C3.8498 9.1375 3.5679 8.85207 3.5679 8.5ZM4.19753 11.2625C3.8498 11.2625 3.5679 11.5479 3.5679 11.9C3.5679 12.2521 3.8498 12.5375 4.19753 12.5375H8.39506C8.74279 12.5375 9.02469 12.2521 9.02469 11.9C9.02469 11.5479 8.74279 11.2625 8.39506 11.2625H4.19753Z" fill="#00089E"/>
</svg>
